#!OML:ASF E:\emotionWalksFemale\Project 1\Capture day 1\Session 1\Female1.ASF
:FULLY-SPECIFIED
:DEGREES
1561
root 8.7034 15.182 -38.3434 0.0864585 -8.06487 -1.74613
lowerback 5.9139 1.27098 1.06502
upperback -4.17508 1.83923 0.528346
thorax -7.68336 0.860122 -0.271649
lowerneck -8.96225 -1.53041 -3.68607
upperneck 13.2124 -1.91224 2.59088
head 5.51773 -0.935729 1.27462
rclavicle -3.19919e-016 1.46604e-015
rhumerus -69.0208 51.739 -128.983
rradius 107.054
rwrist -38.6744
rhand 14.5719 -68.3468
rfingers 7.12502
rthumb -140.551 -806.263
lclavicle -3.19919e-016 1.46604e-015
lhumerus -74.8448 -49.7219 127.953
lradius 111.329
lwrist 13.9782
lhand 7.99213 -37.7211
lfingers 7.12502
lthumb 33.2195 -10.7675
rfemur -1.23382 10.7258 34.0001
rtibia 24.5448
rfoot -22.7866 -27.9424
rtoes 6.36429
lfemur -20.3727 -9.98229 -18.0213
ltibia 37.4719
lfoot -20.5426 -10.948
ltoes -22.1004
1562
root 8.69626 15.1819 -38.3535 0.040567 -8.10205 -1.68394
lowerback 5.95604 1.3136 0.95412
upperback -4.15488 1.88714 0.538201
thorax -7.68958 0.8898 -0.205961
lowerneck -8.92453 -1.52335 -3.56644
upperneck 13.1348 -1.89918 2.44458
head 5.4842 -0.93375 1.21024
rclavicle 5.76476e-015 -3.00662e-015
rhumerus -68.3908 51.5836 -128.295
rradius 107.272
rwrist -39.6515
rhand 14.4135 -69.6781
rfingers 7.12502
rthumb -140.701 -804.888
lclavicle 5.76476e-015 -3.00662e-015
lhumerus -74.9177 -49.7926 128.151
lradius 111.202
lwrist 13.7449
lhand -6.33554 -30.7381
lfingers 7.12502
lthumb 19.5098 -1.69696
rfemur -1.25828 10.6953 33.971
rtibia 24.5986
rfoot -22.5398 -27.961
rtoes 6.10829
lfemur -20.3724 -9.85228 -18.0678
ltibia 37.4947
lfoot -20.6365 -10.6669
ltoes -23.7395
1563
root 8.68843 15.1789 -38.3661 -0.0173759 -8.15242 -1.61983
lowerback 6.01494 1.33223 0.807461
upperback -4.16098 1.90336 0.595759
thorax -7.73712 0.906947 -0.067064
lowerneck -8.86534 -1.48069 -3.52565
upperneck 13.174 -1.82175 2.24924
head 5.482 -0.908155 1.14842
rclavicle -4.0507e-014 -1.03989e-014
rhumerus -68.5023 51.6029 -128.358
rradius 107.211
rwrist -39.9516
rhand 14.3938 -69.6121
rfingers 7.12502
rthumb -140.719 -804.949
lclavicle -4.0507e-014 -1.03989e-014
lhumerus -74.8844 -49.7604 128.201
lradius 111.093
lwrist 13.4803
lhand -2.7435 -33.05
lfingers 7.12502
lthumb 22.9601 -4.39732
rfemur -1.24322 10.8568 33.9675
rtibia 24.6116
rfoot -22.8209 -27.8975
rtoes 8.09638
lfemur -20.4071 -9.80591 -18.1063
ltibia 37.5664
lfoot -20.5853 -10.6533
ltoes -23.428
1564
root 8.68176 15.1799 -38.3799 -0.00561661 -8.15044 -1.58593
lowerback 5.78614 1.31664 0.859105
upperback -4.0776 1.8801 0.555699
thorax -7.51143 0.893412 -0.128092
lowerneck -8.7436 -1.41707 -3.54451
upperneck 13.12 -1.74547 2.31435
head 5.44277 -0.867889 1.1782
rclavicle -6.75091e-015 -5.86415e-015
rhumerus -68.3131 51.6514 -128.31
rradius 107.156
rwrist -39.9378
rhand 14.5955 -69.6763
rfingers 7.12502
rthumb -140.529 -804.94
lclavicle -6.75091e-015 -5.86415e-015
lhumerus -74.7813 -49.8857 128.043
lradius 111.099
lwrist 13.0855
lhand -0.527927 -34.0868
lfingers 7.12502
lthumb 25.0846 -5.71433
rfemur -1.27925 11.1177 33.9946
rtibia 24.575
rfoot -23.1162 -27.9816
rtoes 9.44812
lfemur -20.5232 -9.78971 -18.1101
ltibia 37.6948
lfoot -20.5852 -10.4609
ltoes -24.49
1565
root 8.67752 15.1813 -38.3939 0.011357 -8.06629 -1.61168
lowerback 5.84229 1.31749 0.901305
upperback -4.13369 1.88783 0.572281
thorax -7.60347 0.894714 -0.137492
lowerneck -8.69686 -1.40183 -3.5874
upperneck 13.2827 -1.73378 2.39237
head 5.48609 -0.859697 1.21096
rclavicle 2.00353e-014 1.67352e-014
rhumerus -68.6312 51.574 -128.568
rradius 107.167
rwrist -38.9499
rhand 14.9701 -69.3796
rfingers 7.12502
rthumb -140.177 -805.341
lclavicle 2.00353e-014 1.67352e-014
lhumerus -75.0782 -49.8655 128.374
lradius 111.129
lwrist 12.4668
lhand 2.88249 -35.6917
lfingers 7.12502
lthumb 28.3483 -7.81773
rfemur -1.29807 11.1767 34.0546
rtibia 24.4616
rfoot -22.8959 -28.1574
rtoes 9.28497
lfemur -20.6915 -9.78162 -18.06
ltibia 37.8817
lfoot -20.4134 -10.3349
ltoes -25.4933
1566
root 8.67476 15.1778 -38.4088 -0.0329675 -7.95725 -1.66882
lowerback 6.05063 1.31551 0.962331
upperback -4.19207 1.89808 0.616579
thorax -7.78718 0.896255 -0.13261
lowerneck -8.72608 -1.40899 -3.57607
upperneck 13.529 -1.74191 2.35257
head 5.56782 -0.866504 1.19611
rclavicle 3.94143e-015 2.65972e-015
rhumerus -68.43 51.362 -128.193
rradius 107.201
rwrist -39.8709
rhand 14.7831 -70.0777
rfingers 7.12502
rthumb -140.353 -804.591
lclavicle 3.94143e-015 2.65972e-015
lhumerus -75.0041 -49.8247 128.375
lradius 111.101
lwrist 12.6606
lhand -8.59524 -31.1532
lfingers 7.12502
lthumb 17.336 -1.90634
rfemur -1.22541 11.1003 34.133
rtibia 24.2901
rfoot -22.7463 -28.1206
rtoes 9.19023
lfemur -20.842 -9.80499 -17.9883
ltibia 38.1033
lfoot -20.4015 -10.1306
ltoes -26.9722
1567
root 8.67092 15.1762 -38.4235 -0.0982109 -7.91137 -1.71151
lowerback 6.10639 1.31038 1.08043
upperback -4.13688 1.90158 0.602442
thorax -7.75609 0.891497 -0.214731
lowerneck -8.65169 -1.39227 -3.48759
upperneck 13.5516 -1.72763 2.30261
head 5.5605 -0.859139 1.16738
rclavicle 1.41801e-014 1.24178e-014
rhumerus -70.5102 51.9349 -130.563
rradius 106.431
rwrist -34.7477
rhand 15.9279 -64.7619
rfingers 7.12502
rthumb -139.276 -629.765
lclavicle 1.41801e-014 1.24178e-014
lhumerus -74.7065 -49.9434 128.127
lradius 111.025
lwrist 12.9117
lhand 9.26646 -37.9483
lfingers 7.12502
lthumb 34.4303 -11.2611
rfemur -1.1314 11.0906 34.204
rtibia 24.1497
rfoot -22.7631 -27.9648
rtoes 9.03955
lfemur -20.9567 -9.72319 -17.9337
ltibia 38.31
lfoot -20.5494 -10.0196
ltoes -28.3804
1568
root 8.66622 15.1796 -38.4348 -0.104275 -7.95126 -1.71072
lowerback 6.04862 1.34416 1.14018
upperback -4.07984 1.94862 0.573321
thorax -7.65775 0.911481 -0.282356
lowerneck -8.65045 -1.38373 -3.29316
upperneck 13.6371 -1.72026 2.13141
head 5.58363 -0.858045 1.08234
rclavicle -2.86817e-014 7.51655e-015
rhumerus -68.8729 51.5036 -128.773
rradius 107.152
rwrist -38.1634
rhand 15.3443 -68.4842
rfingers 7.12502
rthumb -139.824 -806.343
lclavicle -2.86817e-014 7.51655e-015
lhumerus -74.8269 -50.1079 128.349
lradius 110.883
lwrist 12.4593
lhand 8.00323 -38.346
lfingers 7.12502
lthumb 33.2301 -11.3947
rfemur -1.12474 11.1086 34.2158
rtibia 24.0835
rfoot -22.6212 -27.9325
rtoes 8.67924
lfemur -21.0918 -9.49544 -17.9265
ltibia 38.4803
lfoot -20.5662 -10.1483
ltoes -28.8165
1569
root 8.66192 15.1825 -38.4451 -0.0966468 -7.97595 -1.61862
lowerback 5.95455 1.36833 1.10836
upperback -3.99319 1.97302 0.5424
thorax -7.50969 0.925736 -0.296201
lowerneck -8.92495 -1.37839 -3.09353
upperneck 13.8746 -1.69751 1.86956
head 5.70052 -0.854569 0.967603
rclavicle 1.11475e-014 -1.06909e-014
rhumerus -68.7307 51.6159 -128.747
rradius 107.089
rwrist -37.9431
rhand 15.3603 -68.2574
rfingers 7.12502
rthumb -139.809 -806.574
lclavicle 1.11475e-014 -1.06909e-014
lhumerus -74.5941 -50.188 128.184
lradius 110.91
lwrist 12.9622
lhand 8.40218 -38.1552
lfingers 7.12502
lthumb 33.6093 -11.2856
rfemur -1.15335 11.0905 34.1326
rtibia 24.048
rfoot -22.4134 -27.9772
rtoes 8.34212
lfemur -21.2499 -9.23778 -18.0235
ltibia 38.63
lfoot -20.5494 -10.2272
ltoes -29.5777
1570
root 8.6581 15.1831 -38.4596 -0.0891453 -7.89758 -1.5113
lowerback 5.94408 1.34668 1.05242
upperback -3.90387 1.93676 0.532464
thorax -7.40976 0.911588 -0.26929
lowerneck -9.23105 -1.35474 -3.01625
upperneck 14.0011 -1.64328 1.7013
head 5.78937 -0.835159 0.904462
rclavicle 7.90751e-015 5.01931e-015
rhumerus -68.6042 51.8171 -128.708
rradius 107.015
rwrist -37.844
rhand 15.3857 -68.044
rfingers 7.12502
rthumb -139.785 -806.795
lclavicle 7.90751e-015 5.01931e-015
lhumerus -74.4174 -50.2436 128.056
lradius 110.838
lwrist 12.5612
lhand 6.84971 -38.4544
lfingers 7.12502
lthumb 32.1326 -11.2751
rfemur -1.20422 11.2215 34.0631
rtibia 23.9991
rfoot -22.4164 -28.0969
rtoes 8.42996
lfemur -21.4656 -9.02785 -18.1298
ltibia 38.7976
lfoot -20.4251 -10.4848
ltoes -29.844
1571
root 8.65425 15.1847 -38.4769 -0.0532212 -7.78429 -1.52577
lowerback 6.01954 1.30947 1.08968
upperback -3.88701 1.8934 0.561778
thorax -7.43585 0.889035 -0.255893
lowerneck -9.27319 -1.30461 -3.0263
upperneck 14.0059 -1.56653 1.66442
head 5.79605 -0.800805 0.90024
rclavicle -5.28954e-015 -2.37299e-015
rhumerus -68.3846 51.7771 -128.463
rradius 107.037
rwrist -37.9595
rhand 15.5392 -68.4782
rfingers 7.12502
rthumb -139.641 -806.405
lclavicle -5.28954e-015 -2.37299e-015
lhumerus -73.4921 -50.0835 127.056
lradius 110.549
lwrist 10.979
lhand 5.38838 -41.0574
lfingers 7.12502
lthumb 30.7403 -13.6067
rfemur -1.27747 11.4729 34.1305
rtibia 23.9409
rfoot -22.5784 -28.3225
rtoes 8.88651
lfemur -21.745 -8.83895 -18.0964
ltibia 39.0109
lfoot -20.1513 -10.7642
ltoes -29.1522
1572
root 8.65024 15.1877 -38.4922 -0.00564188 -7.68113 -1.58814
lowerback 6.12756 1.27344 1.15609
upperback -3.93815 1.85755 0.613329
thorax -7.55356 0.868374 -0.238064
lowerneck -9.28258 -1.2151 -3.32723
upperneck 14.1865 -1.45271 2.00976
head 5.85611 -0.736282 1.06761
rclavicle -1.21693e-014 -4.99446e-015
rhumerus -67.9651 51.5708 -127.963
rradius 107.189
rwrist -38.8134
rhand 15.4954 -69.7448
rfingers 7.12502
rthumb -139.682 -805.126
lclavicle -1.21693e-014 -4.99446e-015
lhumerus -73.7346 -50.0821 127.397
lradius 110.659
lwrist 11.1851
lhand 8.82677 -40.2229
lfingers 7.12502
lthumb 34.0127 -13.4419
rfemur -1.3194 11.6869 34.246
rtibia 23.8439
rfoot -22.5916 -28.6095
rtoes 9.16351
lfemur -22.0512 -8.63186 -18.0182
ltibia 39.2721
lfoot -19.5747 -11.1709
ltoes -26.5987
1573
root 8.64674 15.1865 -38.5064 0.0143354 -7.55019 -1.55869
lowerback 6.21301 1.23466 1.14222
upperback -3.99023 1.80832 0.637737
thorax -7.66089 0.84464 -0.201285
lowerneck -9.38906 -1.12091 -3.74047
upperneck 14.5121 -1.33806 2.50928
head 5.97929 -0.665759 1.303
rclavicle 4.13721e-015 9.83984e-015
rhumerus -68.0429 51.6071 -128.053
rradius 107.051
rwrist -38.5669
rhand 15.7228 -69.8041
rfingers 7.12502
rthumb -139.468 -805.132
lclavicle 4.13721e-015 9.83984e-015
lhumerus -74.0467 -50.0075 127.734
lradius 110.649
lwrist 10.4969
lhand -1.0301 -33.532
lfingers 7.12502
lthumb 24.6034 -5.09314
rfemur -1.31839 11.7559 34.2519
rtibia 23.6801
rfoot -22.5329 -28.7552
rtoes 9.58084
lfemur -22.3431 -8.4177 -18.0616
ltibia 39.5599
lfoot -18.5454 -11.7912
ltoes -23.2349
1574
root 8.64392 15.1854 -38.5206 0.00336981 -7.44686 -1.53599
lowerback 6.24807 1.19477 1.17109
upperback -3.97127 1.7592 0.654871
thorax -7.66115 0.819578 -0.193857
lowerneck -9.18231 -1.09052 -3.59314
upperneck 14.4125 -1.28467 2.246
head 5.90827 -0.65259 1.2
rclavicle 8.82107e-016 7.50412e-015
rhumerus -69.7225 52.2341 -129.997
rradius 106.548
rwrist -34.1961
rhand 16.6982 -66.0726
rfingers 7.12502
rthumb -138.552 -809.155
lclavicle 8.82107e-016 7.50412e-015
lhumerus -73.7641 -49.914 127.455
lradius 110.641
lwrist 10.5585
lhand 7.37001 -40.1046
lfingers 7.12502
lthumb 32.6278 -13.0266
rfemur -1.27004 11.7778 34.2612
rtibia 23.4941
rfoot -22.5104 -28.7502
rtoes 9.64243
lfemur -22.6085 -8.20973 -18.1069
ltibia 39.8615
lfoot -18.1411 -12.0745
ltoes -20.9958
1575
root 8.64123 15.1889 -38.5329 0.0433242 -7.41197 -1.58778
lowerback 6.22838 1.20709 1.29543
upperback -3.94416 1.78851 0.678948
thorax -7.61751 0.828592 -0.24117
lowerneck -8.82905 -1.14791 -3.18707
upperneck 14.1472 -1.33867 1.62684
head 5.75965 -0.70376 0.934506
rclavicle -1.75738e-014 -1.28216e-014
rhumerus -69.4817 52.2771 -129.783
rradius 106.987
rwrist -37.9687
rhand 15.4666 -67.9446
rfingers 7.12502
rthumb -139.709 -806.918
lclavicle -1.75738e-014 -1.28216e-014
lhumerus -73.7683 -50.0874 127.648
lradius 110.448
lwrist 9.64699
lhand 8.82408 -40.224
lfingers 7.12502
lthumb 34.0102 -13.4425
rfemur -1.2639 11.9482 34.3524
rtibia 23.3436
rfoot -22.4948 -28.8315
rtoes 9.31827
lfemur -22.9385 -7.99064 -18.0613
ltibia 40.1951
lfoot -17.4911 -12.327
ltoes -17.7421
